FILE "Wacker der Schnarchkiesel.mp3" MP3
  TRACK 01 AUDIO
    TITLE "Kapitel 1"
    INDEX 01 00:00:00
  TRACK 02 AUDIO
    TITLE "Kapitel 2"
    INDEX 01 20:40:00
  TRACK 03 AUDIO
    TITLE "Kapitel 3"
    INDEX 01 45:53:00
  TRACK 04 AUDIO
    TITLE "Kapitel 4"
    INDEX 01 65:21:00
